<?xml version="1.0" standalone="no"?>
<!DOCTYPE svg PUBLIC "-//W3C//DTD SVG 20010904//EN"
 "http://www.w3.org/TR/2001/REC-SVG-20010904/DTD/svg10.dtd">
<svg version="1.0" xmlns="http://www.w3.org/2000/svg"
 width="260.000000pt" height="260.000000pt" viewBox="0 0 260.000000 260.000000"
 preserveAspectRatio="xMidYMid meet">
<metadata>
Created by potrace 1.11, written by Peter Selinger 2001-2013
</metadata>
<g transform="translate(0.000000,260.000000) scale(0.100000,-0.100000)"
fill="#000000" stroke="none">
<path d="M1890 1981 c-240 -35 -460 -208 -540 -423 -97 -262 -47 -548 130
-742 76 -83 183 -152 300 -192 46 -16 85 -19 240 -19 171 0 190 2 250 24 36
14 94 43 130 66 95 61 209 182 188 199 -47 41 -208 146 -221 146 -11 0 -37
-18 -59 -40 -79 -79 -195 -130 -297 -130 -53 0 -77 6 -136 35 -102 49 -163
108 -211 201 -38 76 -39 79 -39 188 0 110 0 112 39 184 46 87 111 149 204 194
60 30 76 33 152 33 78 0 92 -3 155 -35 39 -19 93 -58 122 -87 29 -29 57 -53
63 -53 13 0 147 92 197 135 36 31 37 33 21 57 -44 67 -160 165 -240 202 -112
53 -307 77 -448 57z"/>
<path d="M147 1953 c-4 -3 -7 -115 -7 -248 0 -174 -3 -244 -12 -253 -7 -7 -38
-12 -70 -12 l-58 0 0 -135 0 -134 68 -3 67 -3 5 -270 5 -270 135 -3 c118 -2
136 0 147 15 10 12 13 83 13 275 l0 258 44 0 44 0 65 -97 c36 -54 97 -143 134
-198 38 -55 90 -131 117 -170 26 -38 53 -73 59 -77 17 -11 329 -10 346 1 11 7
1 27 -45 92 -33 46 -81 116 -107 154 -27 39 -82 117 -122 175 -41 58 -106 151
-145 208 l-72 103 39 47 c21 26 64 79 97 117 370 440 349 413 341 425 -4 6
-72 10 -175 10 l-169 0 -206 -247 c-113 -137 -215 -254 -225 -262 -20 -13 -20
-10 -20 228 0 148 -4 250 -10 262 -10 17 -22 19 -144 19 -73 0 -136 -3 -139
-7z"/>
</g>
</svg>
