<svg version="1" xmlns="http://www.w3.org/2000/svg" width="933.333" height="933.333" viewBox="0 0 700.000000 700.000000"><path d="M0 350v350h700V102.2l-6.4 2.7c-3.6 1.4-6.6 3.3-6.8 4.1-.2.8-.3 131-.3 289.2.1 198.4-.2 287.8-1 288.1-.5.2-152 .3-336.5.2H13.5v-673l273.5-.2c150.4-.1 276-.2 279.1-.2l5.6-.1.6-3.8c.4-2 .9-4.9 1.3-6.5l.6-2.7H0v350z"/><path d="M625.5 34c-.2.3-.2 7.7-.2 16.5l.2 16h32.9l.2-15.5c0-8.5-.1-16-.3-16.6-.4-1.2-32.1-1.6-32.8-.4zM159.7 64.8c-2.7.3-2.7.4-2 5.5 1.1 8.2.3 40.6-1.3 48.9-.1 1-.6 6.8-.9 13-.4 6.2-.8 12.4-1 13.8-.2 1.4-.6 6.5-1 11.5-.3 4.9-.8 11.2-1 14-.3 2.7-.7 8.6-1 13-.3 4.4-.8 9.8-1 12-.2 2.2-.7 7.8-1 12.5-.3 4.7-.7 10.5-1 13-.5 4.9-1.1 10.5-2 22-.4 4.1-.8 9.1-1 11-4.8 49.1-5.3 134.1-1 169 2.8 23.6 11.1 44.9 20.7 53.5 6.3 5.6 12.1 7.5 22.2 7 17.3-.7 31.6-9.3 42.6-25.5 4.8-7.1 14-26.7 14-29.9 0-4 1.7-2.9 4 2.7 3.3 7.9 6.1 12.2 12 18.1 11.7 11.7 20.2 15.3 36 15 15.7-.2 25.9-3.6 40.4-13.4 8.2-5.5 15.7-12.1 21.4-19 1.7-2.2 3.4-3.6 3.7-3.3.3.3 1.2 3.1 2 6.2 1.4 5.3 3.2 9.6 7.1 16.8 2.5 4.6 12.1 13.4 18.1 16.6 6 3.1 16.8 6.7 23.8 7.7 2.2.4 8.2.6 13.4.5 22.9-.2 49.6-9.5 78.1-27.4 19.3-12.1 32.7-22.9 49.6-40.1 19.3-19.6 34.3-39.3 49.8-65.3l6.7-11.2-3.2-2.8c-4.4-3.7-7-5.5-7.4-5.1-.1.2-2.6 3.9-5.4 8.1-13.9 20.8-54.8 61.1-83.1 81.9-22.7 16.6-40.6 24.1-53.3 22.4-7.1-1-12.8-6.6-15.2-15-2.5-8.5-2.3-22.5.5-38.5.5-3 1.2-6.9 1.5-8.6 1.6-9.6 8.2-27.1 13.1-35 8.4-13.3 21.9-18.7 33-13.3 6.1 2.9 8.6 7.4 8.5 15.2-.1 3.4-.5 8-1 10.2-1.1 4.6-.3 6.1 4.6 8.2 5.8 2.4 7 1.8 9.2-4.3 4.3-11.5 5.9-19.3 5.7-28.7-.1-7.9-.5-10-2.9-14.9-6.9-14-22-20.1-48.2-19.3-20.1.6-27.5 2.3-44.3 10.6-6.7 3.4-13 5.8-13.8 5.5-1-.4-1.8.3-2.5 2-.5 1.5-2.2 3.6-3.7 4.8-23 17.8-37.8 48-40.8 83.3-.4 4.3-1.2 8.9-1.9 10.3-2.2 4.2-16.2 18.6-23.3 23.9-12.7 9.6-23.7 13.6-37.2 13.5-6.8-.1-9.5-.6-13.5-2.5-9.6-4.6-17-14.8-19.4-26.9-2.5-12.6-3.2-17.6-3.5-23.9l-.2-5.3 11.1-11.2c22.8-22.9 38.5-48.4 46.2-74.6 3.2-11 4-29.3 1.7-39-4.3-18.2-15.7-27.2-34.4-27.3-7.2 0-9.3.3-14.2 2.7-13.6 6.5-25.7 24.3-35.3 51.7-3.5 10.2-9.8 32.2-9.8 34.6 0 .7-.4 1.3-.9 1.3s-.6-1-.4-2.3c.3-1.2.8-9.2 1.1-17.7.3-8.5.8-17.8 1-20.5.3-4.4.8-12.7 2-33.5.5-8.5 1.6-24 2-28.5.6-6.7 1.4-17.6 2-26 .3-4.4.7-10.3 1-13 .5-4.9 1.5-17.4 2-24.5.2-3.2.9-10.6 2-23 .9-9.9.5-23.1-.9-29.7-.4-1.5-.8-3.7-1-4.8-.8-4-4.7-12.8-7.6-17-7.3-10.6-20.8-18.3-37-21.3-5.1-1-27-1.2-33.3-.4zm129.2 218.7c4.8 1.5 5.7 10.8 2.3 22.2-2 6.4-6.4 16.7-9.5 21.8-4.6 7.7-20 30.5-21.4 31.6-.9.8-1.4.9-1.1.4.5-.8 1.2-4.8 2.3-13.5.1-.8.5-3.3.9-5.5.3-2.2.8-5.4 1-7 1-7.4 7-34.5 8.7-39 3.9-10.1 9.1-13.5 16.8-11z"/></svg>