<svg id="Layer_1" data-name="Layer 1" xmlns="http://www.w3.org/2000/svg" viewBox="0 0 315.62 315.63"><defs><style>.cls-1{fill:#231f20;}</style></defs><title>logo</title><path class="cls-1" d="M183.52,139.26l4,2.21a37.76,37.76,0,0,1-1,3.93q-.75,2.5-3.35,9.65t-5.42,13.58a125.74,125.74,0,0,1-7.58,14.26,86.6,86.6,0,0,1-10,13.53A47.36,47.36,0,0,1,147.92,206a29.66,29.66,0,0,1-14.76,3.77,18.48,18.48,0,0,1-12.87-4.09q-5.69-4.5-7.79-9.31l-1.86-4.57q-8.46,27.66-28.3,26.71-7.66.15-12.22-9.12T64.55,185q-1-15.09-.8-33.86t2-37.9q1.77-19.12,3.06-36.7t2.26-29.76q1-12.18-.39-17.23,1-.23,2.4-.45a54,54,0,0,1,5.62-.29,49.89,49.89,0,0,1,7.89.45,30.79,30.79,0,0,1,8.11,2.49A23.14,23.14,0,0,1,102.18,37,22.46,22.46,0,0,1,107,46.25a39.92,39.92,0,0,1,1.15,13.89q-4.7,53.06-6.07,88.93,9.6-42.7,26.82-42.51,14.12.16,16.35,14.07,2.67,16.31-11.2,37a95.63,95.63,0,0,1-15.76,17.51,39.21,39.21,0,0,0,.3,5.15c.21,1.84.7,4.68,1.45,8.51a16.92,16.92,0,0,0,5,9.4,13.93,13.93,0,0,0,9.65,3.7q8.85.1,17.06-6.26A55.31,55.31,0,0,0,165.45,180a203.49,203.49,0,0,0,9.79-18.55,130.72,130.72,0,0,0,6.29-15.72Zm-55.13-11.89q-4.3,0-6.31,7.22a220.5,220.5,0,0,0-4.33,22.33c-.35,2.54-.61,4.46-.78,5.73q14.82-19.44,15.43-30.21Q132.46,127.42,128.39,127.37Z"/><path class="cls-1" d="M222.83,133.51q17.16,5.7,7.06,29.75a9.1,9.1,0,0,1-3.22-.64,4.25,4.25,0,0,1-2-1.34l-.71-.49a7.64,7.64,0,0,0,.5-1.42A29.35,29.35,0,0,0,225,156a14.07,14.07,0,0,0-.07-4.19,6.26,6.26,0,0,0-2-3.37,7.7,7.7,0,0,0-4.77-1.85,9.27,9.27,0,0,0-2.5-.15,12.85,12.85,0,0,0-3.61,1.39,13.92,13.92,0,0,0-4.59,3.9,33.66,33.66,0,0,0-4.29,8.2,65.05,65.05,0,0,0-3.5,13.48q-4.38,25.31,9.76,24,14.38-1.74,40.27-26.8,16.22-15.6,20.63-24.4l4.74,3.88Q254.74,187,223.9,204.82q-25.77,14.77-44.12,8.57-18.12-6.18-17.12-30.11.28-4.31,1.07-9.07a56.64,56.64,0,0,1,6.19-18.12,41.76,41.76,0,0,1,10-12.32,58.88,58.88,0,0,1,11.69-7.4,40.19,40.19,0,0,1,12.24-3.69,59.91,59.91,0,0,1,10.9-.47A36.59,36.59,0,0,1,222.83,133.51Z"/><path class="cls-1" d="M309.58,48.55v261H6V6H257.62A38.86,38.86,0,0,1,259,0H0V315.63H315.62V46A33.2,33.2,0,0,1,309.58,48.55Z"/><rect class="cls-1" x="281.94" y="15.05" width="15" height="15"/></svg>